<svg width="647" height="316" viewBox="0 0 647 316" fill="none" xmlns="http://www.w3.org/2000/svg">
<path d="M143.742 54.3203C143.638 53.9036 143.495 53.3047 143.312 52.5234C143.156 51.7422 142.974 50.8828 142.765 49.9453C142.583 49.0078 142.401 48.0312 142.219 47.0156C142.036 45.974 141.867 44.9714 141.711 44.0078C141.554 43.0182 141.424 42.1198 141.32 41.3125C141.242 40.4792 141.203 39.8021 141.203 39.2812C141.203 39.0469 141.229 38.6432 141.281 38.0703C141.333 37.4974 141.411 36.8984 141.515 36.2734C141.62 35.6484 141.711 35.0625 141.789 34.5156C141.893 33.9688 141.984 33.5911 142.062 33.3828C142.14 33.3568 142.271 33.3438 142.453 33.3438C142.661 33.3438 142.87 33.3307 143.078 33.3047C143.312 33.2786 143.521 33.2656 143.703 33.2656C143.911 33.2396 144.054 33.2266 144.133 33.2266C145.383 33.2266 146.567 33.474 147.687 33.9688C148.807 34.4635 149.875 35.0885 150.89 35.8438C151.906 36.599 152.896 37.4453 153.859 38.3828C154.823 39.3203 155.786 40.2318 156.75 41.1172C157.739 42.0026 158.742 42.8099 159.758 43.5391C160.773 44.2422 161.854 44.776 163 45.1406C163 45.0104 163 44.8151 163 44.5547C163.026 44.2682 163.039 43.9688 163.039 43.6562C163.039 43.3438 163.039 43.0573 163.039 42.7969C163.065 42.5104 163.078 42.3021 163.078 42.1719C163.078 40.5312 162.974 38.9297 162.765 37.3672C162.557 35.8047 162.323 34.2422 162.062 32.6797C161.802 31.1172 161.567 29.5547 161.359 27.9922C161.151 26.4036 161.047 24.776 161.047 23.1094C161.229 23.1094 161.45 23.1224 161.711 23.1484C161.997 23.1484 162.284 23.1875 162.57 23.2656C162.857 23.3177 163.117 23.4219 163.351 23.5781C163.586 23.7083 163.742 23.9167 163.82 24.2031C163.924 26.0781 164.159 27.9661 164.523 29.8672C164.888 31.7422 165.265 33.6302 165.656 35.5312C166.047 37.4062 166.385 39.2943 166.672 41.1953C166.984 43.0703 167.14 44.9323 167.14 46.7812C167.14 47.1198 167.127 47.4844 167.101 47.875C167.101 48.2656 167.049 48.6432 166.945 49.0078C166.867 49.3464 166.724 49.6328 166.515 49.8672C166.307 50.1016 165.995 50.2188 165.578 50.2188C164.224 50.2188 162.974 49.9193 161.828 49.3203C160.682 48.6953 159.562 47.9271 158.469 47.0156C157.401 46.1042 156.346 45.1016 155.304 44.0078C154.289 42.9141 153.234 41.9115 152.14 41C151.073 40.0885 149.953 39.3203 148.781 38.6953C147.635 38.0703 146.398 37.7578 145.07 37.7578C145.07 39.2161 145.174 40.6224 145.383 41.9766C145.591 43.3047 145.812 44.6328 146.047 45.9609C146.307 47.2891 146.541 48.6172 146.75 49.9453C146.958 51.2474 147.062 52.5755 147.062 53.9297C147.062 54.4245 146.88 54.763 146.515 54.9453C146.177 55.1276 145.799 55.2188 145.383 55.2188C145.044 55.2188 144.719 55.1927 144.406 55.1406C144.12 55.0625 143.898 54.7891 143.742 54.3203ZM168.781 48.0703C168.781 46.4557 169.159 44.9583 169.914 43.5781C170.669 42.1719 171.659 40.974 172.883 39.9844C174.133 38.9688 175.526 38.1745 177.062 37.6016C178.625 37.0286 180.2 36.7422 181.789 36.7422C182.674 36.7422 183.455 37.0286 184.133 37.6016C184.836 38.1745 185.422 38.8776 185.89 39.7109C186.359 40.5182 186.711 41.3776 186.945 42.2891C187.205 43.2005 187.336 43.9948 187.336 44.6719C187.336 46.1302 186.984 47.5495 186.281 48.9297C185.578 50.2839 184.666 51.4948 183.547 52.5625C182.427 53.6042 181.164 54.4505 179.758 55.1016C178.351 55.7526 176.945 56.0781 175.539 56.0781C174.289 56.0781 173.234 55.8698 172.375 55.4531C171.515 55.0104 170.825 54.4375 170.304 53.7344C169.784 53.0052 169.393 52.1589 169.133 51.1953C168.898 50.2057 168.781 49.1641 168.781 48.0703ZM172.101 48.4609C172.101 49.138 172.153 49.737 172.258 50.2578C172.388 50.7526 172.596 51.1823 172.883 51.5469C173.195 51.9115 173.599 52.1979 174.094 52.4062C174.588 52.5885 175.2 52.6797 175.929 52.6797C176.893 52.6797 177.857 52.4193 178.82 51.8984C179.784 51.3516 180.643 50.6745 181.398 49.8672C182.179 49.0339 182.804 48.1224 183.273 47.1328C183.742 46.1432 183.976 45.1797 183.976 44.2422C183.976 43.8255 183.937 43.3698 183.859 42.875C183.781 42.3802 183.651 41.9245 183.469 41.5078C183.286 41.0911 183.026 40.7396 182.687 40.4531C182.349 40.1667 181.919 40.0234 181.398 40.0234C180.929 40.0234 180.37 40.1797 179.719 40.4922C179.094 40.8047 178.429 41.2083 177.726 41.7031C177.049 42.1979 176.372 42.7578 175.695 43.3828C175.044 44.0078 174.445 44.6328 173.898 45.2578C173.351 45.8828 172.909 46.4818 172.57 47.0547C172.258 47.6276 172.101 48.0964 172.101 48.4609ZM196.359 54.2422C196.776 53.9557 197.271 53.5911 197.844 53.1484C198.442 52.6797 199.041 52.1849 199.64 51.6641C200.239 51.1432 200.799 50.5964 201.32 50.0234C201.841 49.4505 202.245 48.9036 202.531 48.3828C202.844 47.8359 203 47.3281 203 46.8594C203 46.3906 202.765 46 202.297 45.6875C201.463 45.6875 200.552 45.7266 199.562 45.8047C198.573 45.8568 197.583 45.8828 196.594 45.8828C195.604 45.8568 194.64 45.7656 193.703 45.6094C192.791 45.4531 191.971 45.1667 191.242 44.75C190.513 44.3333 189.927 43.7474 189.484 42.9922C189.067 42.2109 188.859 41.2214 188.859 40.0234C188.859 38.6172 189.12 37.3542 189.64 36.2344C190.187 35.0885 190.903 34.0859 191.789 33.2266C192.674 32.3411 193.664 31.5729 194.758 30.9219C195.877 30.2448 196.997 29.6719 198.117 29.2031C198.794 29.3854 199.419 29.7109 199.992 30.1797C200.565 30.6484 201.06 31.1693 201.476 31.7422C201.294 32.3151 200.929 32.7578 200.383 33.0703C199.862 33.3828 199.25 33.6562 198.547 33.8906C197.87 34.125 197.153 34.3724 196.398 34.6328C195.643 34.8932 194.953 35.2448 194.328 35.6875C193.729 36.1042 193.221 36.6641 192.804 37.3672C192.388 38.0443 192.179 38.9427 192.179 40.0625C192.179 40.8958 192.388 41.5078 192.804 41.8984C193.221 42.2891 193.768 42.5625 194.445 42.7188C195.122 42.849 195.89 42.901 196.75 42.875C197.609 42.8229 198.482 42.7578 199.367 42.6797C200.278 42.6016 201.164 42.5625 202.023 42.5625C202.883 42.5365 203.651 42.6406 204.328 42.875C205.005 43.0833 205.539 43.4349 205.929 43.9297C206.346 44.4245 206.554 45.1536 206.554 46.1172C206.554 46.5339 206.411 47.0677 206.125 47.7188C205.864 48.3698 205.5 49.0729 205.031 49.8281C204.588 50.5573 204.054 51.2865 203.429 52.0156C202.83 52.7448 202.192 53.4089 201.515 54.0078C200.864 54.5807 200.2 55.0625 199.523 55.4531C198.872 55.8177 198.26 56 197.687 56C197.14 56 196.776 55.8047 196.594 55.4141C196.437 55.0234 196.359 54.6328 196.359 54.2422ZM215.617 54.2422C216.034 53.9557 216.528 53.5911 217.101 53.1484C217.7 52.6797 218.299 52.1849 218.898 51.6641C219.497 51.1432 220.057 50.5964 220.578 50.0234C221.099 49.4505 221.502 48.9036 221.789 48.3828C222.101 47.8359 222.258 47.3281 222.258 46.8594C222.258 46.3906 222.023 46 221.554 45.6875C220.721 45.6875 219.81 45.7266 218.82 45.8047C217.83 45.8568 216.841 45.8828 215.851 45.8828C214.862 45.8568 213.898 45.7656 212.961 45.6094C212.049 45.4531 211.229 45.1667 210.5 44.75C209.771 44.3333 209.185 43.7474 208.742 42.9922C208.325 42.2109 208.117 41.2214 208.117 40.0234C208.117 38.6172 208.377 37.3542 208.898 36.2344C209.445 35.0885 210.161 34.0859 211.047 33.2266C211.932 32.3411 212.922 31.5729 214.015 30.9219C215.135 30.2448 216.255 29.6719 217.375 29.2031C218.052 29.3854 218.677 29.7109 219.25 30.1797C219.823 30.6484 220.317 31.1693 220.734 31.7422C220.552 32.3151 220.187 32.7578 219.64 33.0703C219.12 33.3828 218.508 33.6562 217.804 33.8906C217.127 34.125 216.411 34.3724 215.656 34.6328C214.901 34.8932 214.211 35.2448 213.586 35.6875C212.987 36.1042 212.479 36.6641 212.062 37.3672C211.646 38.0443 211.437 38.9427 211.437 40.0625C211.437 40.8958 211.646 41.5078 212.062 41.8984C212.479 42.2891 213.026 42.5625 213.703 42.7188C214.38 42.849 215.148 42.901 216.008 42.875C216.867 42.8229 217.739 42.7578 218.625 42.6797C219.536 42.6016 220.422 42.5625 221.281 42.5625C222.14 42.5365 222.909 42.6406 223.586 42.875C224.263 43.0833 224.797 43.4349 225.187 43.9297C225.604 44.4245 225.812 45.1536 225.812 46.1172C225.812 46.5339 225.669 47.0677 225.383 47.7188C225.122 48.3698 224.758 49.0729 224.289 49.8281C223.846 50.5573 223.312 51.2865 222.687 52.0156C222.088 52.7448 221.45 53.4089 220.773 54.0078C220.122 54.5807 219.458 55.0625 218.781 55.4531C218.13 55.8177 217.518 56 216.945 56C216.398 56 216.034 55.8047 215.851 55.4141C215.695 55.0234 215.617 54.6328 215.617 54.2422ZM244.172 50.9609C243.182 51.638 242.323 52.25 241.594 52.7969C240.89 53.3177 240.2 53.7604 239.523 54.125C238.846 54.4896 238.117 54.763 237.336 54.9453C236.58 55.1276 235.643 55.2188 234.523 55.2188C232.101 55.2188 230.304 54.5807 229.133 53.3047C227.961 52.0026 227.375 50.0755 227.375 47.5234C227.375 46.5339 227.505 45.5052 227.765 44.4375C228.026 43.3698 228.403 42.3151 228.898 41.2734C229.419 40.2057 230.031 39.2031 230.734 38.2656C231.437 37.3021 232.232 36.4557 233.117 35.7266C234.002 34.9974 234.94 34.4245 235.929 34.0078C236.945 33.5651 238.013 33.3438 239.133 33.3438C241.008 33.526 242.479 33.9948 243.547 34.75C244.614 35.4792 245.422 36.4297 245.969 37.6016C246.515 38.7474 246.893 40.0365 247.101 41.4688C247.31 42.875 247.466 44.3333 247.57 45.8438C247.7 47.3542 247.857 48.8646 248.039 50.375C248.221 51.8854 248.599 53.2786 249.172 54.5547C248.833 55.4141 248.508 56.013 248.195 56.3516C247.909 56.7161 247.583 56.7812 247.219 56.5469C246.854 56.3125 246.424 55.7396 245.929 54.8281C245.461 53.9167 244.875 52.6276 244.172 50.9609ZM230.695 47.6016C230.695 49.0859 230.969 50.1797 231.515 50.8828C232.088 51.5599 233.091 51.8984 234.523 51.8984C235.591 51.8984 236.607 51.7161 237.57 51.3516C238.56 50.9609 239.419 50.4401 240.148 49.7891C240.877 49.112 241.463 48.3047 241.906 47.3672C242.349 46.4297 242.57 45.388 242.57 44.2422C242.57 43.7734 242.583 43.1224 242.609 42.2891C242.635 41.4297 242.583 40.5833 242.453 39.75C242.323 38.9167 242.075 38.2005 241.711 37.6016C241.346 36.9766 240.799 36.6641 240.07 36.6641C238.716 36.6641 237.466 37.0156 236.32 37.7188C235.174 38.3958 234.185 39.2682 233.351 40.3359C232.518 41.4036 231.867 42.5885 231.398 43.8906C230.929 45.1667 230.695 46.4036 230.695 47.6016ZM268.781 39.5938C268.781 38.9427 268.885 38.4349 269.094 38.0703C269.328 37.7057 269.81 37.5234 270.539 37.5234C270.617 37.5234 270.76 37.5365 270.969 37.5625C271.203 37.5625 271.346 37.5625 271.398 37.5625C271.58 38.3698 271.763 39.2552 271.945 40.2188C272.153 41.1562 272.388 42.1068 272.648 43.0703C272.909 44.0339 273.195 44.9844 273.508 45.9219C273.846 46.8594 274.25 47.7057 274.719 48.4609C275.187 47.9661 275.526 47.3802 275.734 46.7031C275.942 46.026 276.099 45.349 276.203 44.6719C276.307 43.9688 276.398 43.3047 276.476 42.6797C276.58 42.0286 276.776 41.4818 277.062 41.0391C277.349 40.5703 277.765 40.2318 278.312 40.0234C278.885 39.8151 279.666 39.8151 280.656 40.0234C281.75 40.0234 282.622 40.2318 283.273 40.6484C283.924 41.0391 284.484 41.5469 284.953 42.1719C285.448 42.7708 285.916 43.4219 286.359 44.125C286.828 44.8021 287.414 45.4141 288.117 45.9609C288.273 45.6224 288.469 45.2057 288.703 44.7109C288.937 44.1901 289.224 43.6562 289.562 43.1094C289.927 42.5365 290.304 41.9766 290.695 41.4297C291.112 40.8568 291.541 40.349 291.984 39.9062C292.427 39.4375 292.883 39.0599 293.351 38.7734C293.82 38.4609 294.276 38.3047 294.719 38.3047C295.786 38.3047 296.711 38.6432 297.492 39.3203C298.273 39.9714 298.937 40.8047 299.484 41.8203C300.057 42.8099 300.526 43.9297 300.89 45.1797C301.255 46.4036 301.541 47.5885 301.75 48.7344C301.958 49.8802 302.101 50.9349 302.179 51.8984C302.284 52.8359 302.336 53.513 302.336 53.9297C302.336 54.2682 302.258 54.5286 302.101 54.7109C301.945 54.8932 301.75 55.0365 301.515 55.1406C301.281 55.2188 301.021 55.2708 300.734 55.2969C300.474 55.3229 300.226 55.3359 299.992 55.3359C299.94 55.3359 299.862 55.3359 299.758 55.3359C299.653 55.3099 299.536 55.2839 299.406 55.2578C299.302 55.2318 299.159 55.1927 298.976 55.1406L296.437 43.4609C296.437 43.3828 296.333 43.2396 296.125 43.0312C295.916 42.7969 295.76 42.6536 295.656 42.6016C295.578 42.6016 295.513 42.5885 295.461 42.5625C295.409 42.5625 295.37 42.5625 295.344 42.5625C295.317 42.5365 295.291 42.5234 295.265 42.5234C294.719 42.5234 294.198 42.7448 293.703 43.1875C293.234 43.6302 292.791 44.1901 292.375 44.8672C291.958 45.5443 291.567 46.2995 291.203 47.1328C290.838 47.9661 290.513 48.7995 290.226 49.6328C289.94 50.4401 289.679 51.1953 289.445 51.8984C289.237 52.5755 289.067 53.0964 288.937 53.4609C288.833 53.513 288.625 53.5651 288.312 53.6172C288 53.6432 287.791 53.6562 287.687 53.6562C286.958 53.6562 286.398 53.4089 286.008 52.9141C285.617 52.3932 285.291 51.7552 285.031 51C284.797 50.2448 284.588 49.4245 284.406 48.5391C284.25 47.6276 284.041 46.7943 283.781 46.0391C283.547 45.2839 283.208 44.6589 282.765 44.1641C282.349 43.6432 281.75 43.3828 280.969 43.3828C280.682 43.3828 280.409 43.6693 280.148 44.2422C279.888 44.8151 279.653 45.5443 279.445 46.4297C279.237 47.2891 279.041 48.2266 278.859 49.2422C278.677 50.2318 278.521 51.1693 278.39 52.0547C278.286 52.9141 278.208 53.6432 278.156 54.2422C278.104 54.8411 278.078 55.1406 278.078 55.1406C278.026 55.2188 277.922 55.3099 277.765 55.4141C277.609 55.4922 277.44 55.5833 277.258 55.6875C277.101 55.7917 276.932 55.8698 276.75 55.9219C276.594 55.974 276.476 56 276.398 56C275.669 56 274.966 55.6745 274.289 55.0234C273.612 54.3464 272.987 53.487 272.414 52.4453C271.867 51.3776 271.359 50.2057 270.89 48.9297C270.448 47.6536 270.07 46.4036 269.758 45.1797C269.445 43.9557 269.198 42.849 269.015 41.8594C268.859 40.8698 268.781 40.1146 268.781 39.5938ZM303.937 45.1406C303.937 43.7344 304.107 42.3281 304.445 40.9219C304.784 39.5156 305.317 38.2526 306.047 37.1328C306.802 36.013 307.765 35.1016 308.937 34.3984C310.135 33.6953 311.58 33.3438 313.273 33.3438C314.237 33.3438 315.083 33.526 315.812 33.8906C316.541 34.2292 317.153 34.6849 317.648 35.2578C318.143 35.8307 318.508 36.5078 318.742 37.2891C319.002 38.0443 319.133 38.8385 319.133 39.6719C319.133 41 318.82 42.2891 318.195 43.5391C317.596 44.7891 316.776 45.8958 315.734 46.8594C314.719 47.7969 313.547 48.513 312.219 49.0078C310.89 49.4766 309.536 49.5807 308.156 49.3203C308.182 50.0755 308.429 50.6875 308.898 51.1562C309.393 51.599 309.979 51.9375 310.656 52.1719C311.333 52.4062 312.036 52.5625 312.765 52.6406C313.495 52.6927 314.146 52.7188 314.719 52.7188C315.317 52.7188 315.877 52.6667 316.398 52.5625C316.919 52.4583 317.44 52.3411 317.961 52.2109C318.482 52.0807 319.002 51.9635 319.523 51.8594C320.07 51.7552 320.643 51.7031 321.242 51.7031C321.476 51.7031 321.711 51.7161 321.945 51.7422C322.179 51.7682 322.401 51.8333 322.609 51.9375C322.817 52.0156 322.987 52.1589 323.117 52.3672C323.247 52.5495 323.312 52.7839 323.312 53.0703C323.312 53.5651 323.13 53.9818 322.765 54.3203C322.401 54.6328 321.932 54.9062 321.359 55.1406C320.812 55.375 320.2 55.5573 319.523 55.6875C318.846 55.7917 318.182 55.8828 317.531 55.9609C316.906 56.013 316.32 56.0391 315.773 56.0391C315.252 56.0651 314.862 56.0781 314.601 56.0781C312.935 56.0781 311.437 55.8177 310.109 55.2969C308.781 54.75 307.661 54.0078 306.75 53.0703C305.838 52.1068 305.135 50.9609 304.64 49.6328C304.172 48.2786 303.937 46.7812 303.937 45.1406ZM308.078 42.6016C308.078 43.513 308.195 44.1771 308.429 44.5938C308.69 45.0104 309.302 45.2188 310.265 45.2188C310.942 45.2188 311.607 45.1016 312.258 44.8672C312.909 44.6068 313.495 44.2552 314.015 43.8125C314.562 43.3698 314.992 42.849 315.304 42.25C315.617 41.651 315.773 41 315.773 40.2969C315.773 39.9062 315.734 39.5026 315.656 39.0859C315.604 38.6693 315.474 38.2917 315.265 37.9531C315.057 37.5885 314.784 37.3021 314.445 37.0938C314.133 36.8594 313.716 36.7422 313.195 36.7422C312.414 36.7422 311.698 36.9245 311.047 37.2891C310.422 37.6276 309.888 38.0833 309.445 38.6562C309.002 39.2031 308.664 39.8281 308.429 40.5312C308.195 41.2083 308.078 41.8984 308.078 42.6016ZM324.875 36.3125C324.875 36.2344 324.888 36.1693 324.914 36.1172C324.914 36.0651 324.927 36 324.953 35.9219C325.057 35.7917 325.213 35.6224 325.422 35.4141C325.63 35.2057 325.76 35.1016 325.812 35.1016H333.664C333.664 34.8151 333.625 34.3594 333.547 33.7344C333.469 33.1094 333.39 32.4193 333.312 31.6641C333.26 30.9089 333.247 30.1276 333.273 29.3203C333.299 28.487 333.403 27.7448 333.586 27.0938C333.794 26.4167 334.107 25.8698 334.523 25.4531C334.966 25.0104 335.578 24.7891 336.359 24.7891C336.359 27.4193 336.541 29.5286 336.906 31.1172C337.271 32.7057 337.752 33.9297 338.351 34.7891C338.976 35.6484 339.679 36.2083 340.461 36.4688C341.242 36.7292 342.036 36.8464 342.844 36.8203C343.677 36.7682 344.484 36.638 345.265 36.4297C346.047 36.2214 346.737 36.0781 347.336 36C347.961 35.9219 348.455 35.987 348.82 36.1953C349.185 36.3776 349.367 36.8333 349.367 37.5625C349.367 38.1094 349.237 38.5 348.976 38.7344C348.742 38.9688 348.273 39.151 347.57 39.2812C347.362 39.3073 347.01 39.3594 346.515 39.4375C346.047 39.4896 345.513 39.5417 344.914 39.5938C344.315 39.6458 343.677 39.7109 343 39.7891C342.323 39.8411 341.685 39.8932 341.086 39.9453C340.487 39.9974 339.94 40.0365 339.445 40.0625C338.95 40.0625 338.586 40.0625 338.351 40.0625C338.351 40.1927 338.338 40.4141 338.312 40.7266C338.286 41.0391 338.273 41.2474 338.273 41.3516C338.273 42.4974 338.455 43.6172 338.82 44.7109C339.185 45.7786 339.575 46.8464 339.992 47.9141C340.435 48.9818 340.838 50.0495 341.203 51.1172C341.567 52.1849 341.75 53.2917 341.75 54.4375C341.75 54.6458 341.724 54.8672 341.672 55.1016C341.646 55.3099 341.567 55.5052 341.437 55.6875C341.333 55.8438 341.164 55.9609 340.929 56.0391C340.721 56.1432 340.422 56.1302 340.031 56C339.041 55.7396 338.299 55.1797 337.804 54.3203C337.336 53.4609 336.984 52.4453 336.75 51.2734C336.515 50.0755 336.359 48.8125 336.281 47.4844C336.203 46.1562 336.073 44.9193 335.89 43.7734C335.734 42.6016 335.474 41.612 335.109 40.8047C334.745 39.9714 334.159 39.4635 333.351 39.2812L325.812 37.5625C325.708 37.5625 325.552 37.4583 325.344 37.25C325.135 37.0156 325.005 36.8464 324.953 36.7422C324.927 36.6901 324.914 36.625 324.914 36.5469C324.888 36.4948 324.875 36.4167 324.875 36.3125ZM367.648 50.9609C366.659 51.638 365.799 52.25 365.07 52.7969C364.367 53.3177 363.677 53.7604 363 54.125C362.323 54.4896 361.594 54.763 360.812 54.9453C360.057 55.1276 359.12 55.2188 358 55.2188C355.578 55.2188 353.781 54.5807 352.609 53.3047C351.437 52.0026 350.851 50.0755 350.851 47.5234C350.851 46.5339 350.982 45.5052 351.242 44.4375C351.502 43.3698 351.88 42.3151 352.375 41.2734C352.896 40.2057 353.508 39.2031 354.211 38.2656C354.914 37.3021 355.708 36.4557 356.594 35.7266C357.479 34.9974 358.416 34.4245 359.406 34.0078C360.422 33.5651 361.489 33.3438 362.609 33.3438C364.484 33.526 365.955 33.9948 367.023 34.75C368.091 35.4792 368.898 36.4297 369.445 37.6016C369.992 38.7474 370.37 40.0365 370.578 41.4688C370.786 42.875 370.942 44.3333 371.047 45.8438C371.177 47.3542 371.333 48.8646 371.515 50.375C371.698 51.8854 372.075 53.2786 372.648 54.5547C372.31 55.4141 371.984 56.013 371.672 56.3516C371.385 56.7161 371.06 56.7812 370.695 56.5469C370.33 56.3125 369.901 55.7396 369.406 54.8281C368.937 53.9167 368.351 52.6276 367.648 50.9609ZM354.172 47.6016C354.172 49.0859 354.445 50.1797 354.992 50.8828C355.565 51.5599 356.567 51.8984 358 51.8984C359.067 51.8984 360.083 51.7161 361.047 51.3516C362.036 50.9609 362.896 50.4401 363.625 49.7891C364.354 49.112 364.94 48.3047 365.383 47.3672C365.825 46.4297 366.047 45.388 366.047 44.2422C366.047 43.7734 366.06 43.1224 366.086 42.2891C366.112 41.4297 366.06 40.5833 365.929 39.75C365.799 38.9167 365.552 38.2005 365.187 37.6016C364.823 36.9766 364.276 36.6641 363.547 36.6641C362.192 36.6641 360.942 37.0156 359.797 37.7188C358.651 38.3958 357.661 39.2682 356.828 40.3359C355.995 41.4036 355.344 42.5885 354.875 43.8906C354.406 45.1667 354.172 46.4036 354.172 47.6016ZM393.117 45.1406C393.117 43.7344 393.286 42.3281 393.625 40.9219C393.963 39.5156 394.497 38.2526 395.226 37.1328C395.982 36.013 396.945 35.1016 398.117 34.3984C399.315 33.6953 400.76 33.3438 402.453 33.3438C403.416 33.3438 404.263 33.526 404.992 33.8906C405.721 34.2292 406.333 34.6849 406.828 35.2578C407.323 35.8307 407.687 36.5078 407.922 37.2891C408.182 38.0443 408.312 38.8385 408.312 39.6719C408.312 41 408 42.2891 407.375 43.5391C406.776 44.7891 405.955 45.8958 404.914 46.8594C403.898 47.7969 402.726 48.513 401.398 49.0078C400.07 49.4766 398.716 49.5807 397.336 49.3203C397.362 50.0755 397.609 50.6875 398.078 51.1562C398.573 51.599 399.159 51.9375 399.836 52.1719C400.513 52.4062 401.216 52.5625 401.945 52.6406C402.674 52.6927 403.325 52.7188 403.898 52.7188C404.497 52.7188 405.057 52.6667 405.578 52.5625C406.099 52.4583 406.62 52.3411 407.14 52.2109C407.661 52.0807 408.182 51.9635 408.703 51.8594C409.25 51.7552 409.823 51.7031 410.422 51.7031C410.656 51.7031 410.89 51.7161 411.125 51.7422C411.359 51.7682 411.58 51.8333 411.789 51.9375C411.997 52.0156 412.166 52.1589 412.297 52.3672C412.427 52.5495 412.492 52.7839 412.492 53.0703C412.492 53.5651 412.31 53.9818 411.945 54.3203C411.58 54.6328 411.112 54.9062 410.539 55.1406C409.992 55.375 409.38 55.5573 408.703 55.6875C408.026 55.7917 407.362 55.8828 406.711 55.9609C406.086 56.013 405.5 56.0391 404.953 56.0391C404.432 56.0651 404.041 56.0781 403.781 56.0781C402.114 56.0781 400.617 55.8177 399.289 55.2969C397.961 54.75 396.841 54.0078 395.929 53.0703C395.018 52.1068 394.315 50.9609 393.82 49.6328C393.351 48.2786 393.117 46.7812 393.117 45.1406ZM397.258 42.6016C397.258 43.513 397.375 44.1771 397.609 44.5938C397.87 45.0104 398.482 45.2188 399.445 45.2188C400.122 45.2188 400.786 45.1016 401.437 44.8672C402.088 44.6068 402.674 44.2552 403.195 43.8125C403.742 43.3698 404.172 42.849 404.484 42.25C404.797 41.651 404.953 41 404.953 40.2969C404.953 39.9062 404.914 39.5026 404.836 39.0859C404.784 38.6693 404.653 38.2917 404.445 37.9531C404.237 37.5885 403.963 37.3021 403.625 37.0938C403.312 36.8594 402.896 36.7422 402.375 36.7422C401.594 36.7422 400.877 36.9245 400.226 37.2891C399.601 37.6276 399.067 38.0833 398.625 38.6562C398.182 39.2031 397.844 39.8281 397.609 40.5312C397.375 41.2083 397.258 41.8984 397.258 42.6016ZM403.586 26.1953L399.367 32.4453C399.054 32.8099 398.742 32.9661 398.429 32.9141C398.117 32.862 397.87 32.7188 397.687 32.4844C397.531 32.224 397.44 31.9115 397.414 31.5469C397.414 31.1562 397.557 30.7786 397.844 30.4141C397.922 30.3359 398 30.2318 398.078 30.1016C398.182 29.9453 398.247 29.8411 398.273 29.7891C398.534 29.3724 398.833 28.9036 399.172 28.3828C399.51 27.862 399.862 27.3802 400.226 26.9375C400.591 26.4688 400.942 26.0651 401.281 25.7266C401.646 25.362 401.984 25.1276 402.297 25.0234C402.609 24.8932 402.87 24.9193 403.078 25.1016C403.312 25.2578 403.482 25.6224 403.586 26.1953ZM432.062 39.5938C432.062 38.9427 432.166 38.4349 432.375 38.0703C432.609 37.7057 433.091 37.5234 433.82 37.5234C433.898 37.5234 434.041 37.5365 434.25 37.5625C434.484 37.5625 434.627 37.5625 434.679 37.5625C434.862 38.3698 435.044 39.2552 435.226 40.2188C435.435 41.1562 435.669 42.1068 435.929 43.0703C436.19 44.0339 436.476 44.9844 436.789 45.9219C437.127 46.8594 437.531 47.7057 438 48.4609C438.469 47.9661 438.807 47.3802 439.015 46.7031C439.224 46.026 439.38 45.349 439.484 44.6719C439.588 43.9688 439.679 43.3047 439.758 42.6797C439.862 42.0286 440.057 41.4818 440.344 41.0391C440.63 40.5703 441.047 40.2318 441.594 40.0234C442.166 39.8151 442.948 39.8151 443.937 40.0234C445.031 40.0234 445.903 40.2318 446.554 40.6484C447.205 41.0391 447.765 41.5469 448.234 42.1719C448.729 42.7708 449.198 43.4219 449.64 44.125C450.109 44.8021 450.695 45.4141 451.398 45.9609C451.554 45.6224 451.75 45.2057 451.984 44.7109C452.219 44.1901 452.505 43.6562 452.844 43.1094C453.208 42.5365 453.586 41.9766 453.976 41.4297C454.393 40.8568 454.823 40.349 455.265 39.9062C455.708 39.4375 456.164 39.0599 456.633 38.7734C457.101 38.4609 457.557 38.3047 458 38.3047C459.067 38.3047 459.992 38.6432 460.773 39.3203C461.554 39.9714 462.219 40.8047 462.765 41.8203C463.338 42.8099 463.807 43.9297 464.172 45.1797C464.536 46.4036 464.823 47.5885 465.031 48.7344C465.239 49.8802 465.383 50.9349 465.461 51.8984C465.565 52.8359 465.617 53.513 465.617 53.9297C465.617 54.2682 465.539 54.5286 465.383 54.7109C465.226 54.8932 465.031 55.0365 464.797 55.1406C464.562 55.2188 464.302 55.2708 464.015 55.2969C463.755 55.3229 463.508 55.3359 463.273 55.3359C463.221 55.3359 463.143 55.3359 463.039 55.3359C462.935 55.3099 462.817 55.2839 462.687 55.2578C462.583 55.2318 462.44 55.1927 462.258 55.1406L459.719 43.4609C459.719 43.3828 459.614 43.2396 459.406 43.0312C459.198 42.7969 459.041 42.6536 458.937 42.6016C458.859 42.6016 458.794 42.5885 458.742 42.5625C458.69 42.5625 458.651 42.5625 458.625 42.5625C458.599 42.5365 458.573 42.5234 458.547 42.5234C458 42.5234 457.479 42.7448 456.984 43.1875C456.515 43.6302 456.073 44.1901 455.656 44.8672C455.239 45.5443 454.849 46.2995 454.484 47.1328C454.12 47.9661 453.794 48.7995 453.508 49.6328C453.221 50.4401 452.961 51.1953 452.726 51.8984C452.518 52.5755 452.349 53.0964 452.219 53.4609C452.114 53.513 451.906 53.5651 451.594 53.6172C451.281 53.6432 451.073 53.6562 450.969 53.6562C450.239 53.6562 449.679 53.4089 449.289 52.9141C448.898 52.3932 448.573 51.7552 448.312 51C448.078 50.2448 447.87 49.4245 447.687 48.5391C447.531 47.6276 447.323 46.7943 447.062 46.0391C446.828 45.2839 446.489 44.6589 446.047 44.1641C445.63 43.6432 445.031 43.3828 444.25 43.3828C443.963 43.3828 443.69 43.6693 443.429 44.2422C443.169 44.8151 442.935 45.5443 442.726 46.4297C442.518 47.2891 442.323 48.2266 442.14 49.2422C441.958 50.2318 441.802 51.1693 441.672 52.0547C441.567 52.9141 441.489 53.6432 441.437 54.2422C441.385 54.8411 441.359 55.1406 441.359 55.1406C441.307 55.2188 441.203 55.3099 441.047 55.4141C440.89 55.4922 440.721 55.5833 440.539 55.6875C440.383 55.7917 440.213 55.8698 440.031 55.9219C439.875 55.974 439.758 56 439.679 56C438.95 56 438.247 55.6745 437.57 55.0234C436.893 54.3464 436.268 53.487 435.695 52.4453C435.148 51.3776 434.64 50.2057 434.172 48.9297C433.729 47.6536 433.351 46.4036 433.039 45.1797C432.726 43.9557 432.479 42.849 432.297 41.8594C432.14 40.8698 432.062 40.1146 432.062 39.5938ZM467.219 40.0625C467.219 39.9062 467.219 39.6328 467.219 39.2422C467.245 38.8255 467.258 38.3958 467.258 37.9531C467.258 37.5104 467.258 37.1068 467.258 36.7422C467.284 36.3516 467.297 36.0781 467.297 35.9219C467.479 35.6094 467.687 35.3099 467.922 35.0234C468.182 34.7109 468.442 34.5026 468.703 34.3984C468.989 34.2682 469.289 34.2422 469.601 34.3203C469.94 34.3984 470.278 34.6589 470.617 35.1016V35.4141V35.9219C470.591 36.0521 470.539 36.3646 470.461 36.8594C470.383 37.3281 470.291 37.849 470.187 38.4219C470.083 38.9948 469.979 39.5286 469.875 40.0234C469.797 40.4922 469.758 40.7917 469.758 40.9219C469.758 41.4167 469.81 42.0417 469.914 42.7969C470.018 43.526 470.161 44.2943 470.344 45.1016C470.552 45.9089 470.799 46.7161 471.086 47.5234C471.398 48.3307 471.763 49.0599 472.179 49.7109C472.596 50.3359 473.052 50.8568 473.547 51.2734C474.067 51.6901 474.666 51.8984 475.344 51.8984C476.177 51.8984 476.906 51.6771 477.531 51.2344C478.182 50.7917 478.742 50.2188 479.211 49.5156C479.679 48.8125 480.057 48.0182 480.344 47.1328C480.656 46.2474 480.903 45.362 481.086 44.4766C481.268 43.5651 481.398 42.6927 481.476 41.8594C481.554 41.026 481.594 40.2969 481.594 39.6719C481.594 39.0469 481.541 38.4609 481.437 37.9141C481.359 37.3411 481.255 36.7812 481.125 36.2344C480.995 35.6875 480.877 35.1536 480.773 34.6328C480.695 34.0859 480.656 33.5391 480.656 32.9922C480.656 32.4974 480.825 32.1458 481.164 31.9375C481.528 31.7292 481.932 31.625 482.375 31.625C482.922 31.625 483.364 31.7943 483.703 32.1328C484.041 32.4453 484.302 32.849 484.484 33.3438C484.692 33.8385 484.823 34.4115 484.875 35.0625C484.953 35.6875 484.992 36.3125 484.992 36.9375C484.992 37.5625 484.979 38.1615 484.953 38.7344C484.927 39.2812 484.914 39.724 484.914 40.0625C484.914 40.9479 484.849 41.9505 484.719 43.0703C484.588 44.1901 484.354 45.349 484.015 46.5469C483.703 47.7188 483.299 48.8776 482.804 50.0234C482.336 51.1693 481.75 52.1979 481.047 53.1094C480.37 53.9948 479.575 54.7109 478.664 55.2578C477.778 55.8047 476.776 56.0781 475.656 56.0781C474.484 56.0781 473.455 55.8047 472.57 55.2578C471.685 54.6849 470.929 53.9427 470.304 53.0312C469.705 52.0938 469.198 51.0391 468.781 49.8672C468.364 48.6953 468.039 47.5234 467.804 46.3516C467.596 45.1797 467.44 44.0469 467.336 42.9531C467.258 41.8333 467.219 40.8698 467.219 40.0625ZM486.437 51.3906C486.437 49.8802 486.815 48.5391 487.57 47.3672C488.325 46.1953 489.263 45.1797 490.383 44.3203C491.502 43.4349 492.713 42.6927 494.015 42.0938C495.317 41.4688 496.528 40.9609 497.648 40.5703C498.768 40.1536 499.705 39.8281 500.461 39.5938C501.216 39.3333 501.594 39.125 501.594 38.9688C501.594 38.0573 501.541 37.1719 501.437 36.3125C501.359 35.4271 501.268 34.5417 501.164 33.6562C501.06 32.7708 500.955 31.8984 500.851 31.0391C500.773 30.1536 500.734 29.2812 500.734 28.4219V25.8828C501.802 25.4922 502.557 25.5312 503 26C503.469 26.4688 503.547 27.276 503.234 28.4219C503.338 28.9948 503.482 29.8932 503.664 31.1172C503.846 32.3411 504.041 33.7214 504.25 35.2578C504.484 36.7943 504.719 38.4089 504.953 40.1016C505.213 41.7943 505.448 43.4219 505.656 44.9844C505.89 46.5208 506.086 47.901 506.242 49.125C506.398 50.3229 506.515 51.2214 506.594 51.8203C506.62 51.9505 506.646 52.2109 506.672 52.6016C506.698 52.9661 506.711 53.3698 506.711 53.8125C506.737 54.2292 506.75 54.6198 506.75 54.9844C506.776 55.349 506.789 55.6094 506.789 55.7656C505.799 55.7656 505.122 55.7266 504.758 55.6484C504.419 55.5703 504.198 55.4141 504.094 55.1797C504.015 54.9453 503.976 54.6068 503.976 54.1641C503.976 53.7214 503.846 53.1094 503.586 52.3281C502.622 53.0833 501.711 53.7083 500.851 54.2031C499.992 54.6979 499.133 55.1016 498.273 55.4141C497.414 55.7005 496.541 55.8958 495.656 56C494.797 56.1302 493.872 56.1953 492.883 56.1953C492.049 56.1953 491.242 56.1302 490.461 56C489.705 55.8438 489.028 55.5833 488.429 55.2188C487.83 54.8542 487.349 54.3594 486.984 53.7344C486.62 53.1094 486.437 52.3281 486.437 51.3906ZM489.836 50.5703C489.836 50.987 489.927 51.3255 490.109 51.5859C490.291 51.8464 490.526 52.0677 490.812 52.25C491.099 52.4323 491.398 52.5625 491.711 52.6406C492.049 52.6927 492.375 52.7188 492.687 52.7188C493.599 52.7188 494.575 52.5495 495.617 52.2109C496.685 51.8464 497.661 51.3516 498.547 50.7266C499.458 50.0755 500.2 49.3073 500.773 48.4219C501.372 47.5365 501.672 46.5729 501.672 45.5312C501.672 44.724 501.528 44.1641 501.242 43.8516C500.955 43.5391 500.409 43.3828 499.601 43.3828C498.768 43.3828 497.791 43.5781 496.672 43.9688C495.578 44.3594 494.51 44.8802 493.469 45.5312C492.453 46.1823 491.594 46.9505 490.89 47.8359C490.187 48.6953 489.836 49.6068 489.836 50.5703ZM525.89 50.9609C524.901 51.638 524.041 52.25 523.312 52.7969C522.609 53.3177 521.919 53.7604 521.242 54.125C520.565 54.4896 519.836 54.763 519.054 54.9453C518.299 55.1276 517.362 55.2188 516.242 55.2188C513.82 55.2188 512.023 54.5807 510.851 53.3047C509.679 52.0026 509.094 50.0755 509.094 47.5234C509.094 46.5339 509.224 45.5052 509.484 44.4375C509.745 43.3698 510.122 42.3151 510.617 41.2734C511.138 40.2057 511.75 39.2031 512.453 38.2656C513.156 37.3021 513.95 36.4557 514.836 35.7266C515.721 34.9974 516.659 34.4245 517.648 34.0078C518.664 33.5651 519.732 33.3438 520.851 33.3438C522.726 33.526 524.198 33.9948 525.265 34.75C526.333 35.4792 527.14 36.4297 527.687 37.6016C528.234 38.7474 528.612 40.0365 528.82 41.4688C529.028 42.875 529.185 44.3333 529.289 45.8438C529.419 47.3542 529.575 48.8646 529.758 50.375C529.94 51.8854 530.317 53.2786 530.89 54.5547C530.552 55.4141 530.226 56.013 529.914 56.3516C529.627 56.7161 529.302 56.7812 528.937 56.5469C528.573 56.3125 528.143 55.7396 527.648 54.8281C527.179 53.9167 526.594 52.6276 525.89 50.9609ZM512.414 47.6016C512.414 49.0859 512.687 50.1797 513.234 50.8828C513.807 51.5599 514.81 51.8984 516.242 51.8984C517.31 51.8984 518.325 51.7161 519.289 51.3516C520.278 50.9609 521.138 50.4401 521.867 49.7891C522.596 49.112 523.182 48.3047 523.625 47.3672C524.067 46.4297 524.289 45.388 524.289 44.2422C524.289 43.7734 524.302 43.1224 524.328 42.2891C524.354 41.4297 524.302 40.5833 524.172 39.75C524.041 38.9167 523.794 38.2005 523.429 37.6016C523.065 36.9766 522.518 36.6641 521.789 36.6641C520.435 36.6641 519.185 37.0156 518.039 37.7188C516.893 38.3958 515.903 39.2682 515.07 40.3359C514.237 41.4036 513.586 42.5885 513.117 43.8906C512.648 45.1667 512.414 46.4036 512.414 47.6016ZM533.351 39.5938C533.351 39.3594 533.364 39.125 533.39 38.8906C533.416 38.6302 533.469 38.4089 533.547 38.2266C533.625 38.0182 533.742 37.849 533.898 37.7188C534.08 37.5885 534.328 37.5234 534.64 37.5234C534.901 37.5234 535.187 37.7318 535.5 38.1484C535.838 38.5391 536.177 39.0469 536.515 39.6719C536.854 40.2708 537.179 40.9349 537.492 41.6641C537.83 42.3932 538.117 43.0703 538.351 43.6953C538.612 44.2943 538.82 44.8151 538.976 45.2578C539.133 45.7005 539.224 45.9349 539.25 45.9609C539.588 45.0495 539.966 44.0599 540.383 42.9922C540.799 41.9245 541.307 40.9349 541.906 40.0234C542.531 39.0859 543.26 38.3047 544.094 37.6797C544.953 37.0547 545.995 36.7422 547.219 36.7422C547.844 36.7422 548.429 36.8464 548.976 37.0547C549.549 37.237 550.044 37.5234 550.461 37.9141C550.903 38.2786 551.255 38.7214 551.515 39.2422C551.776 39.763 551.906 40.362 551.906 41.0391C551.906 41.612 551.672 42.0156 551.203 42.25C550.76 42.4844 550.252 42.6016 549.679 42.6016H549.289L547.609 40.9219C547.557 40.9219 547.518 40.9089 547.492 40.8828C547.44 40.8828 547.388 40.8828 547.336 40.8828C547.31 40.8568 547.271 40.8438 547.219 40.8438C546.307 40.8438 545.591 41.1042 545.07 41.625C544.575 42.1198 544.198 42.7448 543.937 43.5C543.677 44.2292 543.508 45.0104 543.429 45.8438C543.377 46.651 543.351 47.3932 543.351 48.0703C543.351 48.5911 543.403 49.125 543.508 49.6719C543.612 50.1927 543.729 50.7135 543.859 51.2344C543.989 51.7292 544.107 52.25 544.211 52.7969C544.315 53.3177 544.367 53.8646 544.367 54.4375C544.367 55.5312 543.781 56.0781 542.609 56.0781C541.958 56.0781 541.281 55.7396 540.578 55.0625C539.875 54.3594 539.172 53.474 538.469 52.4062C537.791 51.3385 537.14 50.1667 536.515 48.8906C535.89 47.5885 535.344 46.3255 534.875 45.1016C534.406 43.8776 534.028 42.7708 533.742 41.7812C533.482 40.7917 533.351 40.0625 533.351 39.5938ZM588.117 50.9609C587.127 51.638 586.268 52.25 585.539 52.7969C584.836 53.3177 584.146 53.7604 583.469 54.125C582.791 54.4896 582.062 54.763 581.281 54.9453C580.526 55.1276 579.588 55.2188 578.469 55.2188C576.047 55.2188 574.25 54.5807 573.078 53.3047C571.906 52.0026 571.32 50.0755 571.32 47.5234C571.32 46.5339 571.45 45.5052 571.711 44.4375C571.971 43.3698 572.349 42.3151 572.844 41.2734C573.364 40.2057 573.976 39.2031 574.679 38.2656C575.383 37.3021 576.177 36.4557 577.062 35.7266C577.948 34.9974 578.885 34.4245 579.875 34.0078C580.89 33.5651 581.958 33.3438 583.078 33.3438C584.953 33.526 586.424 33.9948 587.492 34.75C588.56 35.4792 589.367 36.4297 589.914 37.6016C590.461 38.7474 590.838 40.0365 591.047 41.4688C591.255 42.875 591.411 44.3333 591.515 45.8438C591.646 47.3542 591.802 48.8646 591.984 50.375C592.166 51.8854 592.544 53.2786 593.117 54.5547C592.778 55.4141 592.453 56.013 592.14 56.3516C591.854 56.7161 591.528 56.7812 591.164 56.5469C590.799 56.3125 590.37 55.7396 589.875 54.8281C589.406 53.9167 588.82 52.6276 588.117 50.9609ZM574.64 47.6016C574.64 49.0859 574.914 50.1797 575.461 50.8828C576.034 51.5599 577.036 51.8984 578.469 51.8984C579.536 51.8984 580.552 51.7161 581.515 51.3516C582.505 50.9609 583.364 50.4401 584.094 49.7891C584.823 49.112 585.409 48.3047 585.851 47.3672C586.294 46.4297 586.515 45.388 586.515 44.2422C586.515 43.7734 586.528 43.1224 586.554 42.2891C586.58 41.4297 586.528 40.5833 586.398 39.75C586.268 38.9167 586.021 38.2005 585.656 37.6016C585.291 36.9766 584.745 36.6641 584.015 36.6641C582.661 36.6641 581.411 37.0156 580.265 37.7188C579.12 38.3958 578.13 39.2682 577.297 40.3359C576.463 41.4036 575.812 42.5885 575.344 43.8906C574.875 45.1667 574.64 46.4036 574.64 47.6016ZM284.211 124.141C284.211 122.734 284.38 121.328 284.719 119.922C285.057 118.516 285.591 117.253 286.32 116.133C287.075 115.013 288.039 114.102 289.211 113.398C290.409 112.695 291.854 112.344 293.547 112.344C294.51 112.344 295.357 112.526 296.086 112.891C296.815 113.229 297.427 113.685 297.922 114.258C298.416 114.831 298.781 115.508 299.015 116.289C299.276 117.044 299.406 117.839 299.406 118.672C299.406 120 299.094 121.289 298.469 122.539C297.87 123.789 297.049 124.896 296.008 125.859C294.992 126.797 293.82 127.513 292.492 128.008C291.164 128.477 289.81 128.581 288.429 128.32C288.455 129.076 288.703 129.688 289.172 130.156C289.666 130.599 290.252 130.938 290.929 131.172C291.607 131.406 292.31 131.562 293.039 131.641C293.768 131.693 294.419 131.719 294.992 131.719C295.591 131.719 296.151 131.667 296.672 131.562C297.192 131.458 297.713 131.341 298.234 131.211C298.755 131.081 299.276 130.964 299.797 130.859C300.344 130.755 300.916 130.703 301.515 130.703C301.75 130.703 301.984 130.716 302.219 130.742C302.453 130.768 302.674 130.833 302.883 130.938C303.091 131.016 303.26 131.159 303.39 131.367C303.521 131.549 303.586 131.784 303.586 132.07C303.586 132.565 303.403 132.982 303.039 133.32C302.674 133.633 302.205 133.906 301.633 134.141C301.086 134.375 300.474 134.557 299.797 134.688C299.12 134.792 298.455 134.883 297.804 134.961C297.179 135.013 296.594 135.039 296.047 135.039C295.526 135.065 295.135 135.078 294.875 135.078C293.208 135.078 291.711 134.818 290.383 134.297C289.054 133.75 287.935 133.008 287.023 132.07C286.112 131.107 285.409 129.961 284.914 128.633C284.445 127.279 284.211 125.781 284.211 124.141ZM288.351 121.602C288.351 122.513 288.469 123.177 288.703 123.594C288.963 124.01 289.575 124.219 290.539 124.219C291.216 124.219 291.88 124.102 292.531 123.867C293.182 123.607 293.768 123.255 294.289 122.812C294.836 122.37 295.265 121.849 295.578 121.25C295.89 120.651 296.047 120 296.047 119.297C296.047 118.906 296.008 118.503 295.929 118.086C295.877 117.669 295.747 117.292 295.539 116.953C295.33 116.589 295.057 116.302 294.719 116.094C294.406 115.859 293.989 115.742 293.469 115.742C292.687 115.742 291.971 115.924 291.32 116.289C290.695 116.628 290.161 117.083 289.719 117.656C289.276 118.203 288.937 118.828 288.703 119.531C288.469 120.208 288.351 120.898 288.351 121.602ZM305.148 130.391C305.148 128.88 305.526 127.539 306.281 126.367C307.036 125.195 307.974 124.18 309.094 123.32C310.213 122.435 311.424 121.693 312.726 121.094C314.028 120.469 315.239 119.961 316.359 119.57C317.479 119.154 318.416 118.828 319.172 118.594C319.927 118.333 320.304 118.125 320.304 117.969C320.304 117.057 320.252 116.172 320.148 115.312C320.07 114.427 319.979 113.542 319.875 112.656C319.771 111.771 319.666 110.898 319.562 110.039C319.484 109.154 319.445 108.281 319.445 107.422V104.883C320.513 104.492 321.268 104.531 321.711 105C322.179 105.469 322.258 106.276 321.945 107.422C322.049 107.995 322.192 108.893 322.375 110.117C322.557 111.341 322.752 112.721 322.961 114.258C323.195 115.794 323.429 117.409 323.664 119.102C323.924 120.794 324.159 122.422 324.367 123.984C324.601 125.521 324.797 126.901 324.953 128.125C325.109 129.323 325.226 130.221 325.304 130.82C325.33 130.951 325.357 131.211 325.383 131.602C325.409 131.966 325.422 132.37 325.422 132.812C325.448 133.229 325.461 133.62 325.461 133.984C325.487 134.349 325.5 134.609 325.5 134.766C324.51 134.766 323.833 134.727 323.469 134.648C323.13 134.57 322.909 134.414 322.804 134.18C322.726 133.945 322.687 133.607 322.687 133.164C322.687 132.721 322.557 132.109 322.297 131.328C321.333 132.083 320.422 132.708 319.562 133.203C318.703 133.698 317.844 134.102 316.984 134.414C316.125 134.701 315.252 134.896 314.367 135C313.508 135.13 312.583 135.195 311.594 135.195C310.76 135.195 309.953 135.13 309.172 135C308.416 134.844 307.739 134.583 307.14 134.219C306.541 133.854 306.06 133.359 305.695 132.734C305.33 132.109 305.148 131.328 305.148 130.391ZM308.547 129.57C308.547 129.987 308.638 130.326 308.82 130.586C309.002 130.846 309.237 131.068 309.523 131.25C309.81 131.432 310.109 131.562 310.422 131.641C310.76 131.693 311.086 131.719 311.398 131.719C312.31 131.719 313.286 131.549 314.328 131.211C315.396 130.846 316.372 130.352 317.258 129.727C318.169 129.076 318.911 128.307 319.484 127.422C320.083 126.536 320.383 125.573 320.383 124.531C320.383 123.724 320.239 123.164 319.953 122.852C319.666 122.539 319.12 122.383 318.312 122.383C317.479 122.383 316.502 122.578 315.383 122.969C314.289 123.359 313.221 123.88 312.179 124.531C311.164 125.182 310.304 125.951 309.601 126.836C308.898 127.695 308.547 128.607 308.547 129.57ZM327.804 119.062C327.804 118.906 327.804 118.633 327.804 118.242C327.83 117.826 327.844 117.396 327.844 116.953C327.844 116.51 327.844 116.107 327.844 115.742C327.87 115.352 327.883 115.078 327.883 114.922C328.065 114.609 328.273 114.31 328.508 114.023C328.768 113.711 329.028 113.503 329.289 113.398C329.575 113.268 329.875 113.242 330.187 113.32C330.526 113.398 330.864 113.659 331.203 114.102V114.414V114.922C331.177 115.052 331.125 115.365 331.047 115.859C330.969 116.328 330.877 116.849 330.773 117.422C330.669 117.995 330.565 118.529 330.461 119.023C330.383 119.492 330.344 119.792 330.344 119.922C330.344 120.417 330.396 121.042 330.5 121.797C330.604 122.526 330.747 123.294 330.929 124.102C331.138 124.909 331.385 125.716 331.672 126.523C331.984 127.331 332.349 128.06 332.765 128.711C333.182 129.336 333.638 129.857 334.133 130.273C334.653 130.69 335.252 130.898 335.929 130.898C336.763 130.898 337.492 130.677 338.117 130.234C338.768 129.792 339.328 129.219 339.797 128.516C340.265 127.812 340.643 127.018 340.929 126.133C341.242 125.247 341.489 124.362 341.672 123.477C341.854 122.565 341.984 121.693 342.062 120.859C342.14 120.026 342.179 119.297 342.179 118.672C342.179 118.047 342.127 117.461 342.023 116.914C341.945 116.341 341.841 115.781 341.711 115.234C341.58 114.688 341.463 114.154 341.359 113.633C341.281 113.086 341.242 112.539 341.242 111.992C341.242 111.497 341.411 111.146 341.75 110.938C342.114 110.729 342.518 110.625 342.961 110.625C343.508 110.625 343.95 110.794 344.289 111.133C344.627 111.445 344.888 111.849 345.07 112.344C345.278 112.839 345.409 113.411 345.461 114.062C345.539 114.688 345.578 115.312 345.578 115.938C345.578 116.562 345.565 117.161 345.539 117.734C345.513 118.281 345.5 118.724 345.5 119.062C345.5 119.948 345.435 120.951 345.304 122.07C345.174 123.19 344.94 124.349 344.601 125.547C344.289 126.719 343.885 127.878 343.39 129.023C342.922 130.169 342.336 131.198 341.633 132.109C340.955 132.995 340.161 133.711 339.25 134.258C338.364 134.805 337.362 135.078 336.242 135.078C335.07 135.078 334.041 134.805 333.156 134.258C332.271 133.685 331.515 132.943 330.89 132.031C330.291 131.094 329.784 130.039 329.367 128.867C328.95 127.695 328.625 126.523 328.39 125.352C328.182 124.18 328.026 123.047 327.922 121.953C327.844 120.833 327.804 119.87 327.804 119.062ZM347.101 123.242C347.101 122.148 347.336 121.003 347.804 119.805C348.299 118.607 348.95 117.526 349.758 116.562C350.565 115.573 351.489 114.753 352.531 114.102C353.599 113.451 354.719 113.125 355.89 113.125C356.489 113.125 357.088 113.229 357.687 113.438C358.286 113.646 358.82 113.945 359.289 114.336C359.784 114.727 360.174 115.195 360.461 115.742C360.773 116.289 360.929 116.901 360.929 117.578C360.461 117.578 360.031 117.526 359.64 117.422C359.276 117.318 358.911 117.201 358.547 117.07C358.182 116.914 357.817 116.784 357.453 116.68C357.114 116.576 356.737 116.523 356.32 116.523C355.252 116.523 354.38 116.797 353.703 117.344C353.052 117.865 352.531 118.529 352.14 119.336C351.75 120.143 351.476 121.016 351.32 121.953C351.19 122.865 351.125 123.724 351.125 124.531C351.125 124.661 351.125 124.909 351.125 125.273C351.151 125.638 351.164 126.029 351.164 126.445C351.19 126.836 351.203 127.214 351.203 127.578C351.229 127.943 351.255 128.19 351.281 128.32C351.567 128.945 351.841 129.427 352.101 129.766C352.388 130.104 352.687 130.365 353 130.547C353.312 130.703 353.651 130.807 354.015 130.859C354.38 130.885 354.81 130.898 355.304 130.898C355.982 130.898 356.567 130.794 357.062 130.586C357.583 130.378 358.065 130.13 358.508 129.844C358.95 129.557 359.367 129.245 359.758 128.906C360.148 128.542 360.552 128.216 360.969 127.93C361.411 127.617 361.88 127.37 362.375 127.188C362.896 126.979 363.482 126.875 364.133 126.875C364.133 128.151 363.898 129.284 363.429 130.273C362.987 131.263 362.349 132.109 361.515 132.812C360.708 133.516 359.745 134.062 358.625 134.453C357.531 134.818 356.333 135 355.031 135C353.807 135 352.7 134.583 351.711 133.75C350.747 132.917 349.914 131.901 349.211 130.703C348.534 129.479 348.013 128.19 347.648 126.836C347.284 125.482 347.101 124.284 347.101 123.242ZM383.117 129.961C382.127 130.638 381.268 131.25 380.539 131.797C379.836 132.318 379.146 132.76 378.469 133.125C377.791 133.49 377.062 133.763 376.281 133.945C375.526 134.128 374.588 134.219 373.469 134.219C371.047 134.219 369.25 133.581 368.078 132.305C366.906 131.003 366.32 129.076 366.32 126.523C366.32 125.534 366.45 124.505 366.711 123.438C366.971 122.37 367.349 121.315 367.844 120.273C368.364 119.206 368.976 118.203 369.679 117.266C370.383 116.302 371.177 115.456 372.062 114.727C372.948 113.997 373.885 113.424 374.875 113.008C375.89 112.565 376.958 112.344 378.078 112.344C379.953 112.526 381.424 112.995 382.492 113.75C383.56 114.479 384.367 115.43 384.914 116.602C385.461 117.747 385.838 119.036 386.047 120.469C386.255 121.875 386.411 123.333 386.515 124.844C386.646 126.354 386.802 127.865 386.984 129.375C387.166 130.885 387.544 132.279 388.117 133.555C387.778 134.414 387.453 135.013 387.14 135.352C386.854 135.716 386.528 135.781 386.164 135.547C385.799 135.312 385.37 134.74 384.875 133.828C384.406 132.917 383.82 131.628 383.117 129.961ZM369.64 126.602C369.64 128.086 369.914 129.18 370.461 129.883C371.034 130.56 372.036 130.898 373.469 130.898C374.536 130.898 375.552 130.716 376.515 130.352C377.505 129.961 378.364 129.44 379.094 128.789C379.823 128.112 380.409 127.305 380.851 126.367C381.294 125.43 381.515 124.388 381.515 123.242C381.515 122.773 381.528 122.122 381.554 121.289C381.58 120.43 381.528 119.583 381.398 118.75C381.268 117.917 381.021 117.201 380.656 116.602C380.291 115.977 379.745 115.664 379.015 115.664C377.661 115.664 376.411 116.016 375.265 116.719C374.12 117.396 373.13 118.268 372.297 119.336C371.463 120.404 370.812 121.589 370.344 122.891C369.875 124.167 369.64 125.404 369.64 126.602ZM398.781 148.828C399.198 148.542 399.705 148.203 400.304 147.812C400.903 147.448 401.502 147.07 402.101 146.68C402.726 146.289 403.312 145.872 403.859 145.43C404.432 145.013 404.875 144.596 405.187 144.18C405.526 143.789 405.695 143.398 405.695 143.008C405.721 142.617 405.487 142.266 404.992 141.953C404.159 141.953 403.351 141.966 402.57 141.992C401.815 142.044 401.086 142.044 400.383 141.992C399.705 141.966 399.08 141.862 398.508 141.68C397.961 141.497 397.479 141.185 397.062 140.742C396.646 140.299 396.32 139.688 396.086 138.906C395.851 138.125 395.734 137.122 395.734 135.898C395.708 135.378 395.708 134.935 395.734 134.57C394.797 134.154 393.95 133.503 393.195 132.617C392.466 131.706 391.854 130.703 391.359 129.609C390.864 128.516 390.474 127.409 390.187 126.289C389.927 125.169 389.797 124.154 389.797 123.242C389.797 122.148 390.031 121.003 390.5 119.805C390.995 118.607 391.646 117.526 392.453 116.562C393.26 115.573 394.185 114.753 395.226 114.102C396.294 113.451 397.414 113.125 398.586 113.125C399.185 113.125 399.784 113.229 400.383 113.438C400.982 113.646 401.515 113.945 401.984 114.336C402.479 114.727 402.87 115.195 403.156 115.742C403.469 116.289 403.625 116.901 403.625 117.578C403.156 117.578 402.726 117.526 402.336 117.422C401.971 117.318 401.607 117.201 401.242 117.07C400.877 116.914 400.513 116.784 400.148 116.68C399.81 116.576 399.432 116.523 399.015 116.523C397.948 116.523 397.075 116.797 396.398 117.344C395.747 117.865 395.226 118.529 394.836 119.336C394.445 120.143 394.172 121.016 394.015 121.953C393.885 122.865 393.82 123.724 393.82 124.531C393.82 124.661 393.82 124.909 393.82 125.273C393.846 125.638 393.859 126.029 393.859 126.445C393.885 126.836 393.898 127.214 393.898 127.578C393.924 127.943 393.95 128.19 393.976 128.32C394.263 128.945 394.536 129.427 394.797 129.766C395.083 130.104 395.383 130.365 395.695 130.547C396.008 130.703 396.346 130.807 396.711 130.859C397.075 130.885 397.505 130.898 398 130.898C398.677 130.898 399.263 130.794 399.758 130.586C400.278 130.378 400.76 130.13 401.203 129.844C401.646 129.557 402.062 129.245 402.453 128.906C402.844 128.542 403.247 128.216 403.664 127.93C404.107 127.617 404.575 127.37 405.07 127.188C405.591 126.979 406.177 126.875 406.828 126.875C406.828 127.995 406.646 129.023 406.281 129.961C405.916 130.898 405.383 131.719 404.679 132.422C404.002 133.099 403.195 133.659 402.258 134.102C401.346 134.518 400.344 134.792 399.25 134.922C399.38 135.339 399.328 135.69 399.094 135.977C399.094 136.81 399.237 137.422 399.523 137.812C399.81 138.229 400.187 138.516 400.656 138.672C401.151 138.828 401.698 138.893 402.297 138.867C402.922 138.841 403.547 138.802 404.172 138.75C404.797 138.724 405.409 138.711 406.008 138.711C406.633 138.711 407.179 138.828 407.648 139.062C408.143 139.297 408.534 139.661 408.82 140.156C409.133 140.677 409.289 141.419 409.289 142.383C409.289 142.799 409.133 143.281 408.82 143.828C408.534 144.401 408.143 144.987 407.648 145.586C407.179 146.211 406.633 146.81 406.008 147.383C405.383 147.982 404.719 148.516 404.015 148.984C403.338 149.453 402.661 149.831 401.984 150.117C401.307 150.43 400.695 150.586 400.148 150.586C399.601 150.586 399.237 150.391 399.054 150C398.872 149.635 398.781 149.245 398.781 148.828ZM425.812 129.961C424.823 130.638 423.963 131.25 423.234 131.797C422.531 132.318 421.841 132.76 421.164 133.125C420.487 133.49 419.758 133.763 418.976 133.945C418.221 134.128 417.284 134.219 416.164 134.219C413.742 134.219 411.945 133.581 410.773 132.305C409.601 131.003 409.015 129.076 409.015 126.523C409.015 125.534 409.146 124.505 409.406 123.438C409.666 122.37 410.044 121.315 410.539 120.273C411.06 119.206 411.672 118.203 412.375 117.266C413.078 116.302 413.872 115.456 414.758 114.727C415.643 113.997 416.58 113.424 417.57 113.008C418.586 112.565 419.653 112.344 420.773 112.344C422.648 112.526 424.12 112.995 425.187 113.75C426.255 114.479 427.062 115.43 427.609 116.602C428.156 117.747 428.534 119.036 428.742 120.469C428.95 121.875 429.107 123.333 429.211 124.844C429.341 126.354 429.497 127.865 429.679 129.375C429.862 130.885 430.239 132.279 430.812 133.555C430.474 134.414 430.148 135.013 429.836 135.352C429.549 135.716 429.224 135.781 428.859 135.547C428.495 135.312 428.065 134.74 427.57 133.828C427.101 132.917 426.515 131.628 425.812 129.961ZM412.336 126.602C412.336 128.086 412.609 129.18 413.156 129.883C413.729 130.56 414.732 130.898 416.164 130.898C417.232 130.898 418.247 130.716 419.211 130.352C420.2 129.961 421.06 129.44 421.789 128.789C422.518 128.112 423.104 127.305 423.547 126.367C423.989 125.43 424.211 124.388 424.211 123.242C424.211 122.773 424.224 122.122 424.25 121.289C424.276 120.43 424.224 119.583 424.094 118.75C423.963 117.917 423.716 117.201 423.351 116.602C422.987 115.977 422.44 115.664 421.711 115.664C420.357 115.664 419.107 116.016 417.961 116.719C416.815 117.396 415.825 118.268 414.992 119.336C414.159 120.404 413.508 121.589 413.039 122.891C412.57 124.167 412.336 125.404 412.336 126.602ZM409.679 108.359C409.679 107.5 409.758 106.602 409.914 105.664C410.07 104.701 410.357 103.828 410.773 103.047C411.19 102.24 411.763 101.576 412.492 101.055C413.247 100.534 414.211 100.273 415.383 100.273C416.216 100.273 416.932 100.469 417.531 100.859C418.156 101.224 418.703 101.693 419.172 102.266C419.666 102.812 420.122 103.424 420.539 104.102C420.955 104.753 421.398 105.365 421.867 105.938C422.336 106.51 422.844 106.979 423.39 107.344C423.963 107.708 424.627 107.891 425.383 107.891C426.268 107.891 426.906 107.76 427.297 107.5C427.713 107.24 427.987 106.901 428.117 106.484C428.247 106.042 428.286 105.56 428.234 105.039C428.208 104.518 428.195 104.01 428.195 103.516C428.195 102.995 428.247 102.539 428.351 102.148C428.482 101.732 428.768 101.406 429.211 101.172H429.992C430.07 101.198 430.187 101.25 430.344 101.328C430.526 101.38 430.695 101.445 430.851 101.523C431.034 101.602 431.203 101.693 431.359 101.797C431.541 101.875 431.659 101.927 431.711 101.953C431.711 102.057 431.711 102.214 431.711 102.422C431.737 102.604 431.75 102.812 431.75 103.047C431.75 103.255 431.75 103.464 431.75 103.672C431.776 103.88 431.789 104.01 431.789 104.062C431.789 106.354 431.19 108.151 429.992 109.453C428.794 110.729 427.075 111.367 424.836 111.367C423.976 111.367 423.234 111.198 422.609 110.859C421.984 110.521 421.424 110.091 420.929 109.57C420.461 109.049 420.031 108.49 419.64 107.891C419.25 107.266 418.846 106.706 418.429 106.211C418.013 105.69 417.557 105.26 417.062 104.922C416.594 104.557 416.034 104.375 415.383 104.375C414.549 104.375 413.95 104.544 413.586 104.883C413.247 105.195 413.013 105.599 412.883 106.094C412.752 106.589 412.687 107.135 412.687 107.734C412.687 108.333 412.648 108.919 412.57 109.492C412.492 110.065 412.323 110.586 412.062 111.055C411.828 111.497 411.411 111.823 410.812 112.031L409.914 111.211C409.914 111.133 409.901 110.977 409.875 110.742C409.849 110.482 409.823 110.221 409.797 109.961L409.719 109.062C409.692 108.75 409.679 108.516 409.679 108.359ZM433.273 127.07C433.273 125.456 433.651 123.958 434.406 122.578C435.161 121.172 436.151 119.974 437.375 118.984C438.625 117.969 440.018 117.174 441.554 116.602C443.117 116.029 444.692 115.742 446.281 115.742C447.166 115.742 447.948 116.029 448.625 116.602C449.328 117.174 449.914 117.878 450.383 118.711C450.851 119.518 451.203 120.378 451.437 121.289C451.698 122.201 451.828 122.995 451.828 123.672C451.828 125.13 451.476 126.549 450.773 127.93C450.07 129.284 449.159 130.495 448.039 131.562C446.919 132.604 445.656 133.451 444.25 134.102C442.844 134.753 441.437 135.078 440.031 135.078C438.781 135.078 437.726 134.87 436.867 134.453C436.008 134.01 435.317 133.438 434.797 132.734C434.276 132.005 433.885 131.159 433.625 130.195C433.39 129.206 433.273 128.164 433.273 127.07ZM436.594 127.461C436.594 128.138 436.646 128.737 436.75 129.258C436.88 129.753 437.088 130.182 437.375 130.547C437.687 130.911 438.091 131.198 438.586 131.406C439.08 131.589 439.692 131.68 440.422 131.68C441.385 131.68 442.349 131.419 443.312 130.898C444.276 130.352 445.135 129.674 445.89 128.867C446.672 128.034 447.297 127.122 447.765 126.133C448.234 125.143 448.469 124.18 448.469 123.242C448.469 122.826 448.429 122.37 448.351 121.875C448.273 121.38 448.143 120.924 447.961 120.508C447.778 120.091 447.518 119.74 447.179 119.453C446.841 119.167 446.411 119.023 445.89 119.023C445.422 119.023 444.862 119.18 444.211 119.492C443.586 119.805 442.922 120.208 442.219 120.703C441.541 121.198 440.864 121.758 440.187 122.383C439.536 123.008 438.937 123.633 438.39 124.258C437.844 124.883 437.401 125.482 437.062 126.055C436.75 126.628 436.594 127.096 436.594 127.461Z" fill="black"/>
<path d="M14.4456 236.933C32.6823 228.239 50.9154 219.587 69.0827 210.721C70.3453 210.114 71.3544 208.024 71.6059 206.498C77.3779 170.058 97.7317 144.857 131.359 130.537C136.949 128.157 143.357 127.516 150.327 128.677C159.525 130.19 164.773 138.024 163.052 147.205C161.552 155.234 156.94 161.459 151.612 167.248C139.769 180.024 125.388 189.621 110.715 198.693C101.418 204.447 91.7915 209.63 82.0443 215.262C83.9574 219.936 89.2574 223.593 94.1087 223.576C103.306 223.584 107.838 221.868 114.957 219.698C137.303 212.89 157.101 200.981 174.998 186.281C188.32 175.341 200.841 163.457 213.706 151.978C214.833 150.984 215.888 149.859 217.005 148.99C218.748 147.629 220.416 147.181 221.866 148.347C223.465 149.231 222.619 151.879 222.046 153.253C221.106 155.517 219.675 157.656 218.022 159.443C192.217 187.872 163.209 212.064 127 226.254C119.05 229.359 110.529 231.289 102.094 232.682C89.974 234.648 79.6707 231.33 73.5556 219.327C55.9065 226.982 38.5169 234.533 20.8228 242.227C27.0516 242.742 32.9482 243.229 38.8862 243.72C39.8828 243.802 40.8897 243.76 41.8795 243.926C44.5614 244.356 48.1772 244.112 48.1037 248.036C48.037 251.877 44.4209 251.619 42.0505 251.465C30.0257 250.764 17.9698 249.934 5.99306 248.652C1.10342 248.122 -0.99573 244.687 1.36137 240.45C8.06611 228.128 15.3766 216.064 22.7217 204.087C23.3992 202.972 25.6646 201.362 27.9354 202.72C29.5902 203.944 29.3152 206.764 28.6621 208.09C24.6984 216.082 20.3714 223.919 16.1239 231.804C15.3809 233.206 14.5548 234.601 13.7703 235.999C12.09 238.118 13.0101 237.609 14.4456 236.933ZM79.4628 204.513C79.2147 205.998 81.6184 204.231 82.0127 204.013C102.649 192.591 122.876 180.55 140.15 164.293C144.773 159.951 148.808 154.64 151.901 149.085C155.983 141.687 152.065 135.97 143.592 136.817C138.111 137.367 132.358 138.689 127.432 141.125C106.473 151.391 88.65 173.289 83.2176 189.438C81.2009 195.626 81.0568 197.37 79.4628 204.513Z" fill="black"/>
</svg>
